STARTFONT 2.1
FONT -thai-dbthaitext-bold-i-normal--55-401-100-100-p-167-tis620-0
SIZE 40 100 100
FONTBOUNDINGBOX 75 64 -19 -23
STARTPROPERTIES 25
FOUNDRY "thai"
FAMILY_NAME "dbthaitext"
WEIGHT_NAME "bold"
SLANT "i"
SETWIDTH_NAME "normal"
ADD_STYLE_NAME ""
PIXEL_SIZE 55
POINT_SIZE 401
RESOLUTION_X 100
RESOLUTION_Y 100
SPACING "p"
AVERAGE_WIDTH 167
CHARSET_REGISTRY "tis620"
CHARSET_ENCODING "0"
FONT "-thai-dbthaitext-bold-i-normal--55-401-100-100-p-167-tis620-0"
COPYRIGHT "Typeface (c) The Monotype Corporation plc. Data (c) The Monotype Corporation plc/Type Solutions Inc. 1990-1992. All Rights Reserved"
RAW_PIXELSIZE 1000
RAW_POINTSIZE 723
RAW_ASCENT 738
RAW_DESCENT 408
RAW_AVERAGE_WIDTH 3023
FACE_NAME "DBThaiTextBoldItalic"
DEFAULT_CHAR 0
FONT_ASCENT 41
FONT_DESCENT 23
ENDPROPERTIES
CHARS 190
STARTCHAR space
ENCODING 32
SWIDTH 252 0
DWIDTH 14 0
BBX 0 0 0 0
BITMAP
ENDCHAR
STARTCHAR exclam
ENCODING 33
SWIDTH 180 0
DWIDTH 10 0
BBX 12 23 0 0
BITMAP
01f0
01e0
01e0
03e0
03e0
03c0
07c0
0780
0780
0780
0700
0f00
0e00
0e00
0c00
0c00
0000
0000
7c00
7c00
7800
f800
f800
ENDCHAR
STARTCHAR quotedbl
ENCODING 34
SWIDTH 270 0
DWIDTH 15 0
BBX 13 8 2 15
BITMAP
7878
78f0
78f0
f0f0
f1e0
e1e0
e1c0
c180
ENDCHAR
STARTCHAR numbersign
ENCODING 35
SWIDTH 306 0
DWIDTH 17 0
BBX 22 23 -2 -1
BITMAP
000e3c
001e38
001c78
003870
0078f0
0071e0
07fff8
0ffff8
0ffff8
0ffff0
03c780
038700
078f00
070e00
7fffc0
7fffc0
ffff80
ffff80
1c7800
3c7000
78e000
71e000
f1c000
ENDCHAR
STARTCHAR dollar
ENCODING 36
SWIDTH 306 0
DWIDTH 17 0
BBX 19 28 -1 -4
BITMAP
000600
000400
007f80
01ffc0
03ffe0
079be0
0719e0
0f31e0
0f3000
0f3000
0fe000
0ff000
07fc00
03fe00
00ff00
00df00
00cf00
f18f00
f18f00
f19e00
f33c00
fffc00
7ff000
3fe000
0e0000
060000
040000
0c0000
ENDCHAR
STARTCHAR percent
ENCODING 37
SWIDTH 504 0
DWIDTH 28 0
BBX 24 23 2 -1
BITMAP
07e00e
1ff00c
3ff018
7cf830
707860
f070c0
f0f180
f1e380
ffe700
7fce00
7f1c00
00187c
0031fe
0063ff
00c78f
018f0f
038e0f
070e0e
0e1f1e
1c0ffc
180ff8
3007e0
600000
ENDCHAR
STARTCHAR ampersand
ENCODING 38
SWIDTH 414 0
DWIDTH 23 0
BBX 21 24 0 -1
BITMAP
000f80
003fc0
007fe0
00ffe0
01e1e0
01e3c0
03e3c0
03e780
01ff00
01fe00
01f800
07f878
1ffc70
3f7cf0
3c3fe0
783fe0
f81fc0
f81f80
f81f80
fc7f80
ffffc0
7ff7c0
3fe7e0
0e0000
ENDCHAR
STARTCHAR apostrophe
ENCODING 39
SWIDTH 144 0
DWIDTH 8 0
BBX 6 8 1 15
BITMAP
7c
78
78
f8
f0
f0
e0
c0
ENDCHAR
STARTCHAR parenleft
ENCODING 40
SWIDTH 180 0
DWIDTH 10 0
BBX 14 29 0 -6
BITMAP
0038
0078
00f0
00e0
01c0
03c0
0780
0700
0f00
1e00
1e00
3c00
3c00
7800
7800
7800
7800
f000
f000
f000
f000
f000
f000
f000
f000
f000
7000
7000
7000
ENDCHAR
STARTCHAR parenright
ENCODING 41
SWIDTH 180 0
DWIDTH 10 0
BBX 14 29 -4 -6
BITMAP
0078
0038
0038
0038
003c
003c
003c
003c
003c
003c
003c
003c
0038
0078
0078
0078
00f0
00f0
01e0
01e0
03c0
0380
0780
0700
0e00
1c00
3c00
3800
7000
ENDCHAR
STARTCHAR asterisk
ENCODING 42
SWIDTH 216 0
DWIDTH 12 0
BBX 11 11 0 12
BITMAP
0300
0300
0700
76e0
7fe0
3f80
1e00
3f00
7700
e700
4200
ENDCHAR
STARTCHAR plus
ENCODING 43
SWIDTH 324 0
DWIDTH 18 0
BBX 17 15 1 0
BITMAP
007800
007800
00f000
00f000
00f000
01e000
7fff80
7fff80
ffff00
ffff00
03c000
078000
078000
070000
0f0000
ENDCHAR
STARTCHAR comma
ENCODING 44
SWIDTH 198 0
DWIDTH 11 0
BBX 7 8 2 -3
BITMAP
1e
3e
7e
3c
1c
18
70
c0
ENDCHAR
STARTCHAR minus
ENCODING 45
SWIDTH 180 0
DWIDTH 10 0
BBX 10 4 0 7
BITMAP
7fc0
7f80
7f80
ff80
ENDCHAR
STARTCHAR period
ENCODING 46
SWIDTH 144 0
DWIDTH 8 0
BBX 5 5 1 0
BITMAP
10
78
f8
f0
e0
ENDCHAR
STARTCHAR slash
ENCODING 47
SWIDTH 162 0
DWIDTH 9 0
BBX 16 24 -4 -1
BITMAP
0003
0006
0006
000c
000c
0018
0030
0030
0060
0040
00c0
0180
0180
0300
0200
0600
0c00
0c00
1800
3000
3000
6000
6000
8000
ENDCHAR
STARTCHAR 0
ENCODING 48
SWIDTH 306 0
DWIDTH 17 0
BBX 18 24 0 -1
BITMAP
003e00
00ff80
01ff80
03ffc0
07c7c0
0f83c0
0f03c0
1e07c0
1e07c0
3e0780
3c0780
3c0f80
7c0f00
780f00
781f00
f81e00
f01e00
f03c00
f07c00
f8f800
fff000
ffe000
7fc000
1e0000
ENDCHAR
STARTCHAR 1
ENCODING 49
SWIDTH 306 0
DWIDTH 17 0
BBX 12 22 4 0
BITMAP
00f0
00e0
03e0
3fe0
7fc0
ffc0
ffc0
0780
0780
0f80
0f00
0f00
1f00
1e00
1e00
3e00
3e00
3c00
7c00
7c00
7800
f800
ENDCHAR
STARTCHAR 2
ENCODING 50
SWIDTH 306 0
DWIDTH 17 0
BBX 21 23 -3 0
BITMAP
0007c0
003ff0
007ff0
00fff8
01f0f8
03e0f8
03c0f8
07c0f8
0001f0
0001f0
0003e0
000fc0
001f80
007e00
00fc00
03f000
07c000
1f8000
3f0000
3fff80
7fff00
7fff00
ffff00
ENDCHAR
STARTCHAR 3
ENCODING 51
SWIDTH 306 0
DWIDTH 17 0
BBX 19 24 -1 -1
BITMAP
001f00
00ffc0
01ffe0
03ffe0
07c3e0
0f83e0
0f03e0
0f03c0
0007c0
001f80
00fe00
00fe00
00ff00
003f00
001f00
001f00
081f00
f81f00
f83e00
f87c00
fefc00
7ff800
7fe000
1f0000
ENDCHAR
STARTCHAR 4
ENCODING 52
SWIDTH 306 0
DWIDTH 17 0
BBX 19 22 -1 0
BITMAP
0007e0
000fc0
001fc0
003fc0
007f80
00f780
00ef80
01cf00
038f00
071f00
0e1e00
1c1e00
383e00
7fff80
7fff00
ffff00
ffff00
007800
00f800
00f800
00f000
01f000
ENDCHAR
STARTCHAR 5
ENCODING 53
SWIDTH 306 0
DWIDTH 17 0
BBX 20 23 -1 -1
BITMAP
00fff0
00fff0
01ffe0
01ffe0
038000
038000
070000
077c00
0fff00
0fff00
1fff00
1e0f00
000f00
000f00
000f00
000f00
f01e00
f03e00
f87c00
fff800
7ff000
3fc000
0e0000
ENDCHAR
STARTCHAR 6
ENCODING 54
SWIDTH 306 0
DWIDTH 17 0
BBX 19 24 -1 -1
BITMAP
001f80
00ffc0
01ffe0
03e3e0
07c3e0
0f83e0
0f0000
1f0000
1e3c00
3ffe00
3fff00
3fff00
7e1f00
7c0f00
780f00
f81f00
f81f00
f83e00
f83e00
f8fc00
fff800
7ff000
3fc000
0e0000
ENDCHAR
STARTCHAR 7
ENCODING 55
SWIDTH 306 0
DWIDTH 17 0
BBX 20 22 0 0
BITMAP
0ffff0
0ffff0
1fffe0
1fffe0
0007c0
000f00
001e00
003c00
007800
00f000
01f000
03e000
07c000
078000
0f8000
1f0000
1e0000
3e0000
3c0000
7c0000
780000
f80000
ENDCHAR
STARTCHAR 8
ENCODING 56
SWIDTH 306 0
DWIDTH 17 0
BBX 19 24 -1 -1
BITMAP
003f00
00ffc0
01ffe0
03e3e0
07c1e0
0781e0
0f01e0
0f03c0
0f0780
07df80
03fe00
0ffe00
1fff00
3e1f00
7c0f00
780f00
f81f00
f81f00
f83e00
f87c00
fff800
7ff000
3fc000
0f0000
ENDCHAR
STARTCHAR 9
ENCODING 57
SWIDTH 306 0
DWIDTH 17 0
BBX 18 24 -1 -1
BITMAP
003e00
00ff80
01ff80
03ffc0
0783c0
0f03c0
0e03c0
1e03c0
1c03c0
1c0780
1c0f80
1e1f80
1fff00
1fff00
0fef00
038e00
001e00
001c00
f03800
f07800
fff000
7fe000
7f8000
1e0000
ENDCHAR
STARTCHAR colon
ENCODING 58
SWIDTH 180 0
DWIDTH 10 0
BBX 9 18 1 0
BITMAP
0300
0780
0f80
0f00
0400
0000
0000
0000
0000
0000
0000
0000
0000
0000
7000
f800
f000
e000
ENDCHAR
STARTCHAR semicolon
ENCODING 59
SWIDTH 198 0
DWIDTH 11 0
BBX 10 20 0 -3
BITMAP
0180
03c0
07c0
0780
0700
0000
0000
0000
0000
0000
0000
0000
1c00
3c00
7c00
3c00
1800
1800
6000
c000
ENDCHAR
STARTCHAR less
ENCODING 60
SWIDTH 324 0
DWIDTH 18 0
BBX 18 15 1 0
BITMAP
000040
0003c0
001f80
00ff80
07ff00
3ff000
7f8000
7c0000
ff0000
ffc000
3ff800
07fc00
01fc00
007c00
000c00
ENDCHAR
STARTCHAR equal
ENCODING 61
SWIDTH 324 0
DWIDTH 18 0
BBX 19 12 0 1
BITMAP
0fffe0
1fffe0
1fffc0
1fffc0
000000
000000
000000
000000
7fff00
7fff00
ffff00
fffe00
ENDCHAR
STARTCHAR greater
ENCODING 62
SWIDTH 324 0
DWIDTH 18 0
BBX 18 15 -1 0
BITMAP
040000
0f0000
0fe000
0ff800
0ffe00
01ff80
007fc0
000f80
003f80
01ff80
0ffc00
7fe000
7f0000
7c0000
e00000
ENDCHAR
STARTCHAR question
ENCODING 63
SWIDTH 342 0
DWIDTH 19 0
BBX 16 23 3 0
BITMAP
03fc
0ffe
1fff
3fff
3c1f
781f
781f
f01e
003e
007c
00f8
03f0
07c0
0f80
0f00
1e00
1e00
0000
3e00
3c00
7c00
7c00
7800
ENDCHAR
STARTCHAR at
ENCODING 64
SWIDTH 558 0
DWIDTH 31 0
BBX 31 28 0 -4
BITMAP
00007f00
0003ffe0
0007fff0
001f01f8
003c007c
00f0003c
01e0001e
0380000e
0701fb8e
0e03fb0e
1c0e1f0e
1c1c1e0e
38381c0c
30701c1c
7060181c
70e03838
e0c07070
e1c0e070
e1c1e1e0
e1e3e7c0
e0feff00
f07c7e00
70000000
78000000
3e002000
1fffc000
0fffe000
01ff0000
ENDCHAR
STARTCHAR A
ENCODING 65
SWIDTH 414 0
DWIDTH 23 0
BBX 21 23 -3 0
BITMAP
0001f8
0003f8
0007f8
0007f8
000ff8
000ff8
001ef8
003ef8
003cf8
0078f8
00f8f8
00f0f8
01e0f8
03e078
03fff8
07fff8
0ffff8
0ffff8
1e00f8
3e00f8
3c00f8
7c00f8
f800f8
ENDCHAR
STARTCHAR B
ENCODING 66
SWIDTH 414 0
DWIDTH 23 0
BBX 24 23 -1 0
BITMAP
01fff8
01fffe
01fffe
03ffff
03e03f
03c01f
07c01f
07c03e
07807c
0ffff8
0ffff0
0ffff8
1ffff8
1f00f8
1e00f8
3e00f8
3e00f8
3c01f0
7c03f0
7fffe0
7fffc0
ffff80
fffc00
ENDCHAR
STARTCHAR C
ENCODING 67
SWIDTH 414 0
DWIDTH 23 0
BBX 23 25 0 -1
BITMAP
000fc0
003ff0
00fff8
01fffc
03fffe
07e07e
0fc03e
1f803e
1f003e
3e0000
3e0000
7c0000
7c0000
7c0000
f80000
f80000
f800f0
f801f0
fc03e0
fc07c0
ff3f80
7fff00
3ffe00
1ff800
07c000
ENDCHAR
STARTCHAR D
ENCODING 68
SWIDTH 414 0
DWIDTH 23 0
BBX 24 23 -1 0
BITMAP
01fff8
01fffc
01fffe
03fffe
03e03f
03c03f
07c01f
07c01f
07801f
0f801f
0f803e
0f003e
1f003e
1f007c
1e007c
3e00f8
3e01f0
3c03f0
7c0fe0
7fffc0
7fff80
fffe00
fff800
ENDCHAR
STARTCHAR E
ENCODING 69
SWIDTH 378 0
DWIDTH 21 0
BBX 24 23 -1 0
BITMAP
01ffff
01ffff
01fffe
03fffe
03e000
03c000
07c000
07c000
078000
0ffff0
0ffff0
0fffe0
1fffe0
1f0000
1e0000
3e0000
3e0000
3c0000
7c0000
7fffc0
7fffc0
ffffc0
ffff80
ENDCHAR
STARTCHAR F
ENCODING 70
SWIDTH 342 0
DWIDTH 19 0
BBX 24 23 -2 0
BITMAP
01ffff
01ffff
01fffe
03fffe
03e000
03e000
07c000
07c000
078000
0ffff0
0fffe0
0fffe0
1fffe0
1f0000
1f0000
3e0000
3e0000
3e0000
7c0000
7c0000
7c0000
780000
f80000
ENDCHAR
STARTCHAR G
ENCODING 71
SWIDTH 432 0
DWIDTH 24 0
BBX 23 25 1 -1
BITMAP
000fe0
007ff8
00fffc
01fffc
03f0fe
07c03e
0f801e
1f001e
1e0000
3c0000
3c0000
7c0000
780ffc
780ff8
f80ff8
f01ff8
f000f0
f800f0
f801f0
fc03e0
7e1fe0
7fffe0
3ffdc0
1ff1c0
078000
ENDCHAR
STARTCHAR H
ENCODING 72
SWIDTH 414 0
DWIDTH 23 0
BBX 26 23 -2 0
BITMAP
01f007c0
01f00780
01e00f80
03e00f80
03e00f80
03c00f00
07c01f00
07c01f00
07c01e00
0ffffe00
0ffffe00
0ffffc00
1ffffc00
1f007c00
1f007800
3e00f800
3e00f800
3e00f000
7c01f000
7c01f000
7c01e000
f803e000
f803e000
ENDCHAR
STARTCHAR I
ENCODING 73
SWIDTH 162 0
DWIDTH 9 0
BBX 12 23 -2 0
BITMAP
01f0
01f0
01e0
03e0
03e0
03c0
07c0
07c0
0780
0f80
0f80
0f00
1f00
1f00
1e00
3e00
3e00
3c00
7c00
7c00
7800
7800
f800
ENDCHAR
STARTCHAR J
ENCODING 74
SWIDTH 306 0
DWIDTH 17 0
BBX 20 24 -1 -1
BITMAP
0001f0
0001e0
0001e0
0003e0
0003e0
0003c0
0007c0
0007c0
000780
000f80
000f80
000f00
000f00
001f00
001e00
781e00
783e00
f83c00
f87c00
f8f800
fff000
ffe000
7fc000
1f0000
ENDCHAR
STARTCHAR K
ENCODING 75
SWIDTH 414 0
DWIDTH 23 0
BBX 26 23 -1 0
BITMAP
01e00f80
01e01f00
01e03e00
03e0fc00
03c1f000
03c3e000
07c7c000
07cf8000
079e0000
0fbc0000
0ffc0000
0ffc0000
1ffe0000
1fbe0000
1f3f0000
3c1f0000
3c1f8000
3c0f8000
7c0f8000
7807c000
7807c000
f803e000
f803e000
ENDCHAR
STARTCHAR L
ENCODING 76
SWIDTH 342 0
DWIDTH 19 0
BBX 17 23 -1 0
BITMAP
01f000
01f000
01e000
03e000
03e000
03c000
07c000
07c000
078000
0f8000
0f8000
0f0000
1f0000
1f0000
1e0000
3e0000
3e0000
3e0000
7c0000
7fff80
7fff80
ffff00
ffff00
ENDCHAR
STARTCHAR M
ENCODING 77
SWIDTH 468 0
DWIDTH 26 0
BBX 30 23 -2 0
BITMAP
01fc01fc
01fc03f8
01fc03f8
03fc07f8
03fc07f8
03fc0ff0
07dc1ff0
07dc1df0
07fc3fe0
0fbc3be0
0fbc73e0
0fb877c0
1f38e7c0
1f39e7c0
1f39cf80
3e3bcf80
3e3b8f80
3e7f8f00
7c7f1f00
7c7e1f00
7c7e1e00
787c3e00
f87c3e00
ENDCHAR
STARTCHAR N
ENCODING 78
SWIDTH 414 0
DWIDTH 23 0
BBX 26 23 -1 0
BITMAP
01f007c0
01f00780
01f80f80
03f80f80
03f80f80
03f80f00
07fc1f00
07fc1f00
07bc1e00
0fbe3e00
0f9e3e00
0f1e3c00
1f1e7c00
1f1f7c00
1e0f7800
3e0ff800
3e0ff800
3c07f000
7c07f000
7c07f000
7807e000
7803e000
f803e000
ENDCHAR
STARTCHAR O
ENCODING 79
SWIDTH 432 0
DWIDTH 24 0
BBX 24 25 0 -1
BITMAP
000ff0
007ff8
00fffe
03fffe
03f8ff
07e07f
0fc03f
1f801f
1f001f
3e001f
3e001f
7c001f
7c003e
f8003e
f8003e
f8007c
f800f8
f800f8
fc01f0
fc07e0
ff1fc0
7fff80
3fff00
1ffc00
07c000
ENDCHAR
STARTCHAR P
ENCODING 80
SWIDTH 378 0
DWIDTH 21 0
BBX 23 23 -1 0
BITMAP
01fff8
01fffc
01fffe
03fffe
03e03e
03c03e
07c03e
07c03c
07c07c
0f8078
0f81f8
0ffff0
1fffe0
1fffc0
1fff00
3e0000
3e0000
3c0000
7c0000
7c0000
7c0000
f80000
f80000
ENDCHAR
STARTCHAR Q
ENCODING 81
SWIDTH 432 0
DWIDTH 24 0
BBX 24 26 1 -2
BITMAP
000ff0
007ffc
00fffc
03fffe
03f8fe
07e07f
0fc03f
1f801f
1f001f
3e001f
3e001f
7c001f
7c003e
f8003e
f8003e
f8047c
f80efc
f81ef8
fc1ff0
fc0fe0
7f1fc0
7fffe0
3fffe0
1ffde0
07c1c0
000080
ENDCHAR
STARTCHAR R
ENCODING 82
SWIDTH 414 0
DWIDTH 23 0
BBX 24 23 -1 0
BITMAP
01fffc
01fffe
01ffff
03ffff
03e01f
03c00f
07c01f
07c01e
07803e
0f807c
0ffff8
0fffe0
1fffe0
1ffff0
1e01f0
3e01f0
3e01f0
3c01e0
7c01e0
7c03e0
7803c0
f803c0
f803e0
ENDCHAR
STARTCHAR S
ENCODING 83
SWIDTH 378 0
DWIDTH 21 0
BBX 22 25 -1 -1
BITMAP
001fe0
00fff8
01fff8
03fffc
07e1fc
07c07c
0f807c
0f007c
0f0000
0f8000
0ff800
0fff80
07ffe0
03ffe0
001ff0
0003f0
0003e0
f803e0
f803e0
f807c0
fe1f80
ffff80
7ffe00
3ffc00
07c000
ENDCHAR
STARTCHAR T
ENCODING 84
SWIDTH 342 0
DWIDTH 19 0
BBX 20 23 3 0
BITMAP
7ffff0
7ffff0
ffffe0
ffffe0
01f000
03f000
03e000
03e000
03e000
07c000
07c000
078000
0f8000
0f8000
0f0000
1f0000
1f0000
1e0000
3e0000
3e0000
3c0000
7c0000
7c0000
ENDCHAR
STARTCHAR U
ENCODING 85
SWIDTH 414 0
DWIDTH 23 0
BBX 24 24 1 -1
BITMAP
07c01f
07c01e
07c03e
0f803e
0f803e
0f807c
1f007c
1f007c
1f00f8
3e00f8
3e00f8
3e01f0
3c01f0
7c01f0
7c03e0
7c03e0
f803e0
f807c0
f80fc0
fe3f80
7fff00
7ffe00
3ff800
078000
ENDCHAR
STARTCHAR V
ENCODING 86
SWIDTH 378 0
DWIDTH 21 0
BBX 20 23 4 0
BITMAP
f801f0
f803e0
f803c0
f807c0
f80f80
f80f00
f81f00
f83e00
f83c00
f87800
f87800
f0f000
f1e000
f1e000
f3c000
f78000
f78000
ff0000
fe0000
fe0000
fc0000
f80000
f80000
ENDCHAR
STARTCHAR W
ENCODING 87
SWIDTH 540 0
DWIDTH 30 0
BBX 30 23 3 0
BITMAP
7c07c07c
7c0fc0f8
7c0fc0f0
7c1fc1f0
7c1f81e0
783f83e0
783b83c0
787b8780
78778780
78f78f00
78e79f00
79e79e00
f9c73c00
f3873c00
f7877800
f7077800
ff07f000
fe0fe000
fe0fe000
fc0fc000
fc0fc000
f80f8000
f80f0000
ENDCHAR
STARTCHAR X
ENCODING 88
SWIDTH 378 0
DWIDTH 21 0
BBX 27 23 -3 0
BITMAP
00f807c0
00fc0f80
00fc1f80
007c3f00
007c3e00
007c7c00
003ef800
003ff000
003fe000
003fc000
001f8000
001f0000
003f8000
007f8000
00ff8000
01ff8000
03e7c000
07c7c000
0f87c000
1f87e000
3f03e000
3e03e000
7c03f000
ENDCHAR
STARTCHAR Y
ENCODING 89
SWIDTH 378 0
DWIDTH 21 0
BBX 20 23 4 0
BITMAP
fc03e0
fc07e0
fc07c0
7c0f80
7c1f00
7c3e00
7c7e00
7c7c00
3ef800
3ff000
3fe000
3fc000
3fc000
1f8000
1f0000
1f0000
3e0000
3e0000
3c0000
7c0000
7c0000
780000
f80000
ENDCHAR
STARTCHAR Z
ENCODING 90
SWIDTH 342 0
DWIDTH 19 0
BBX 25 23 -3 0
BITMAP
01ffff80
01ffff80
01ffff00
03ffff00
00007e00
0000fc00
0001f800
0003f000
0007e000
000fc000
001f0000
003e0000
00fc0000
01f80000
03f00000
07e00000
0fc00000
1f000000
3e000000
7fffe000
7fffc000
ffffc000
ffffc000
ENDCHAR
STARTCHAR bracketleft
ENCODING 91
SWIDTH 180 0
DWIDTH 10 0
BBX 17 29 -3 -6
BITMAP
007f80
007f00
007f00
00f000
00f000
00f000
01e000
01e000
01e000
03c000
03c000
03c000
078000
078000
078000
0f8000
0f0000
0f0000
1f0000
1e0000
1e0000
3e0000
3c0000
3c0000
3c0000
780000
7f0000
7f0000
ff0000
ENDCHAR
STARTCHAR backslash
ENCODING 92
SWIDTH 162 0
DWIDTH 9 0
BBX 3 23 3 -1
BITMAP
e0
e0
e0
e0
e0
e0
e0
e0
e0
e0
e0
e0
e0
e0
e0
e0
e0
e0
e0
e0
e0
e0
e0
ENDCHAR
STARTCHAR bracketright
ENCODING 93
SWIDTH 180 0
DWIDTH 10 0
BBX 17 29 -4 -6
BITMAP
007f80
007f00
007f00
000f00
001f00
001e00
001e00
003e00
003c00
003c00
007c00
007800
007800
007800
00f000
00f000
00f000
01e000
01e000
01e000
03c000
03c000
03c000
078000
078000
078000
7f0000
7f0000
ff0000
ENDCHAR
STARTCHAR asciicircum
ENCODING 94
SWIDTH 324 0
DWIDTH 18 0
BBX 14 13 0 9
BITMAP
0078
00f8
01f8
01f8
03b8
07b8
073c
0e3c
1e3c
3c1c
381c
781c
f01c
ENDCHAR
STARTCHAR underscore
ENCODING 95
SWIDTH 306 0
DWIDTH 17 0
BBX 20 3 -1 -7
BITMAP
7ffff0
fffff0
01ffe0
ENDCHAR
STARTCHAR grave
ENCODING 96
SWIDTH 162 0
DWIDTH 9 0
BBX 10 9 0 5
BITMAP
0f80
3fc0
7fc0
7fc0
ffc0
ff80
ff80
ff00
7e00
ENDCHAR
STARTCHAR a
ENCODING 97
SWIDTH 306 0
DWIDTH 17 0
BBX 18 19 -1 -1
BITMAP
007f00
01ff80
03ffc0
07ffc0
0f87c0
0f07c0
1e07c0
001f80
07ff80
1fff80
3fcf00
7c0f00
781f00
f83e00
f87e00
fffe00
fffe00
7f3e00
3c0000
ENDCHAR
STARTCHAR b
ENCODING 98
SWIDTH 342 0
DWIDTH 19 0
BBX 20 24 -2 -1
BITMAP
01f000
01f000
01e000
03e000
03e000
03c000
07dfc0
07bfe0
07fff0
0ffff0
0fc3f0
0f81f0
1f81f0
1f01f0
1f01e0
3e03e0
3e03e0
3e07c0
7e0f80
7f3f80
7fff00
fffe00
fbf800
01e000
ENDCHAR
STARTCHAR c
ENCODING 99
SWIDTH 306 0
DWIDTH 17 0
BBX 17 19 0 -1
BITMAP
00fe00
01ff00
03ff80
07ff80
0fff80
1f0780
3e0780
3c0000
7c0000
780000
780000
f80000
f81e00
f83e00
f87c00
fff800
7ff000
3fc000
0f0000
ENDCHAR
STARTCHAR d
ENCODING 100
SWIDTH 342 0
DWIDTH 19 0
BBX 21 24 0 -1
BITMAP
0000f8
0000f8
0000f0
0000f0
0001f0
00f9e0
03fde0
07ffe0
0fffc0
1f8fc0
1e0fc0
3c0780
780780
780780
780f00
f00f00
f01f00
f01e00
f03e00
f87e00
fffc00
7fbc00
7f3c00
1c0000
ENDCHAR
STARTCHAR e
ENCODING 101
SWIDTH 306 0
DWIDTH 17 0
BBX 17 19 0 -1
BITMAP
00fc00
03ff00
07ff00
0fff80
1f8f80
1e0780
3c0780
3c0780
7fff80
7fff00
7fff00
f00000
f00000
f03e00
f87c00
fff800
7ff000
3fc000
0e0000
ENDCHAR
STARTCHAR f
ENCODING 102
SWIDTH 180 0
DWIDTH 10 0
BBX 14 23 -1 0
BITMAP
007c
00fc
01f8
03e0
03c0
03c0
1ff0
1ff0
3fe0
0f00
0f00
0f00
1f00
1e00
1e00
3e00
3c00
3c00
7c00
7800
7800
7800
f800
ENDCHAR
STARTCHAR g
ENCODING 103
SWIDTH 342 0
DWIDTH 19 0
BBX 22 25 -1 -7
BITMAP
001e3c
007f7c
00fff8
01fff8
03e3f8
07c1f0
0781f0
0f01f0
0f01e0
1e01e0
1e01e0
1e03e0
1e03c0
1e07c0
1f0fc0
1fff80
1fff80
0fef80
038f00
000f00
f81e00
fc7e00
fffc00
7ff000
3fc000
ENDCHAR
STARTCHAR h
ENCODING 104
SWIDTH 342 0
DWIDTH 19 0
BBX 19 23 -1 0
BITMAP
01e000
01e000
01c000
03c000
03c000
03c000
079fc0
07bfe0
07ffe0
0fffe0
0f83e0
0f03c0
1f03c0
1e03c0
1e0780
3e0780
3c0780
3c0f00
7c0f00
780f00
781e00
781e00
f81e00
ENDCHAR
STARTCHAR i
ENCODING 105
SWIDTH 162 0
DWIDTH 9 0
BBX 12 23 -2 0
BITMAP
01f0
01f0
01e0
03e0
0000
0000
07c0
07c0
0780
0f80
0f80
0f00
1f00
1f00
1e00
3e00
3e00
3c00
7c00
7c00
7800
f800
f800
ENDCHAR
STARTCHAR j
ENCODING 106
SWIDTH 162 0
DWIDTH 9 0
BBX 16 30 -5 -7
BITMAP
001f
001f
001e
001e
0000
0000
003c
007c
0078
0078
00f8
00f0
00f0
01f0
01e0
01e0
03e0
03c0
03c0
07c0
0780
0780
0f80
0f00
0f00
1f00
7e00
7e00
7c00
f000
ENDCHAR
STARTCHAR k
ENCODING 107
SWIDTH 306 0
DWIDTH 17 0
BBX 21 23 -2 0
BITMAP
01f000
01f000
01e000
03e000
03e000
03c000
07c1f0
07c3e0
0787c0
0f8f80
0f3e00
0f7c00
1ff800
1ff800
1ffc00
3ffc00
3f7c00
3e7c00
7c7e00
7c3e00
783e00
783e00
f83f00
ENDCHAR
STARTCHAR l
ENCODING 108
SWIDTH 162 0
DWIDTH 9 0
BBX 12 23 -2 0
BITMAP
01f0
01e0
01e0
03e0
03c0
03c0
07c0
07c0
0780
0f80
0f80
0f00
1f00
1f00
1e00
3e00
3e00
3c00
3c00
7c00
7800
7800
f800
ENDCHAR
STARTCHAR m
ENCODING 109
SWIDTH 504 0
DWIDTH 28 0
BBX 28 18 -1 0
BITMAP
07c707c0
079f8fe0
07bfdff0
07fffff0
0feffbf0
0f87e1f0
0f03c1e0
1e0781e0
1e0781e0
1e0783c0
3e0f03c0
3c0f03c0
3c0f0780
7c1e0780
781e0780
781e0f00
f83c0f00
f83c0f00
ENDCHAR
STARTCHAR n
ENCODING 110
SWIDTH 342 0
DWIDTH 19 0
BBX 19 18 -1 0
BITMAP
078f80
079fc0
07bfe0
07ffe0
0fc3e0
0f83e0
0f03e0
1e03c0
1e03c0
1e03c0
3e0780
3c0780
3c0780
7c0f00
780f00
780f00
f81e00
f81e00
ENDCHAR
STARTCHAR o
ENCODING 111
SWIDTH 342 0
DWIDTH 19 0
BBX 18 19 1 -1
BITMAP
00fe00
03ff80
07ff80
0fffc0
1f8fc0
1f07c0
3e07c0
3c07c0
7807c0
780780
f80780
f80f80
f80f00
f81f00
fc7e00
fffc00
7ff800
3fe000
0f8000
ENDCHAR
STARTCHAR p
ENCODING 112
SWIDTH 342 0
DWIDTH 19 0
BBX 22 25 -2 -7
BITMAP
00f3e0
01f7f0
01fff8
01fffc
03fffc
03f07c
03e07c
03e07c
07c07c
07c078
0780f8
0f80f8
0f81f0
0f83f0
1fc7e0
1fffc0
1eff80
3eff00
3e3800
3c0000
7c0000
7c0000
780000
780000
f80000
ENDCHAR
STARTCHAR q
ENCODING 113
SWIDTH 342 0
DWIDTH 19 0
BBX 20 25 1 -7
BITMAP
00f8f0
03fdf0
07fde0
0fffe0
0f8fe0
1f0fc0
3e07c0
3c07c0
7c0780
780780
f80f80
f80f00
f81f00
f83f00
f87f00
fffe00
7fde00
7fbe00
1e3c00
007c00
007c00
007800
00f800
00f800
00f000
ENDCHAR
STARTCHAR r
ENCODING 114
SWIDTH 216 0
DWIDTH 12 0
BBX 15 18 -1 0
BITMAP
07c6
079e
07bc
0ffc
0ffc
0fc0
0f80
1f00
1e00
1e00
3e00
3c00
3c00
7c00
7800
7800
f800
f000
ENDCHAR
STARTCHAR s
ENCODING 115
SWIDTH 306 0
DWIDTH 17 0
BBX 18 19 -1 -1
BITMAP
00fe00
03ff80
07ffc0
0fffc0
0f07c0
1f07c0
1f0000
1fe000
1ffc00
0fff00
07ff00
00ff00
001f00
f81f00
fc3e00
fffc00
7ff800
3ff000
0f8000
ENDCHAR
STARTCHAR t
ENCODING 116
SWIDTH 180 0
DWIDTH 10 0
BBX 12 22 0 -1
BITMAP
03e0
03c0
07c0
07c0
3ff0
3ff0
3fe0
0f00
1f00
1f00
1f00
3e00
3e00
3e00
7c00
7c00
7c00
f800
fe00
fe00
fe00
3c00
ENDCHAR
STARTCHAR u
ENCODING 117
SWIDTH 342 0
DWIDTH 19 0
BBX 19 18 1 -1
BITMAP
0f03e0
0f03e0
1e03c0
1e03c0
1e07c0
3c0780
3c0780
3c0f80
780f00
780f00
780f00
f81e00
f03e00
f87e00
fffc00
ffbc00
7f3c00
1c0000
ENDCHAR
STARTCHAR v
ENCODING 118
SWIDTH 306 0
DWIDTH 17 0
BBX 16 17 3 0
BITMAP
f01f
f03e
f03c
f07c
f078
f0f0
f0f0
f1e0
f3c0
f3c0
f780
f780
ff00
fe00
fe00
fc00
f800
ENDCHAR
STARTCHAR w
ENCODING 119
SWIDTH 432 0
DWIDTH 24 0
BBX 25 17 2 0
BITMAP
783e0f80
783e0f00
787e1e00
787e3e00
78fe3c00
78fe7c00
f9fc7800
fbdcf000
fb9cf000
f79de000
f71fe000
ff1fc000
fe3f8000
fe3f8000
fc3f0000
f83f0000
f83e0000
ENDCHAR
STARTCHAR x
ENCODING 120
SWIDTH 306 0
DWIDTH 17 0
BBX 22 17 -2 0
BITMAP
03e0f8
03e1f0
01f1e0
01f3e0
01f7c0
01ff80
00ff00
00fe00
00fc00
01fc00
03fc00
07fe00
0ffe00
1fbe00
1f1f00
3e1f00
7c1f00
ENDCHAR
STARTCHAR y
ENCODING 121
SWIDTH 306 0
DWIDTH 17 0
BBX 22 24 -1 -7
BITMAP
07c07c
07c0f8
07c0f0
03c1f0
03c1e0
03c3c0
03c7c0
03c780
03cf00
03cf00
03de00
03fc00
03f800
03f800
03f000
03e000
03e000
03c000
078000
078000
7f0000
7e0000
fc0000
f00000
ENDCHAR
STARTCHAR z
ENCODING 122
SWIDTH 288 0
DWIDTH 16 0
BBX 19 17 -2 0
BITMAP
03ffe0
03ffe0
07ffc0
07ffc0
000f80
001f00
007e00
00f800
01f000
03e000
0fc000
1f8000
3e0000
7ffe00
7ffc00
fffc00
fffc00
ENDCHAR
STARTCHAR braceleft
ENCODING 123
SWIDTH 216 0
DWIDTH 12 0
BBX 15 29 0 -6
BITMAP
003e
007e
00fc
01f0
01e0
01e0
03c0
03c0
03c0
0780
0780
0780
0f00
7e00
7800
7e00
3e00
1e00
3c00
3c00
3c00
7800
7800
7800
f000
f000
fc00
fc00
7800
ENDCHAR
STARTCHAR bar
ENCODING 124
SWIDTH 162 0
DWIDTH 9 0
BBX 12 29 -2 -6
BITMAP
0070
0070
0060
00e0
00e0
00c0
01c0
01c0
0180
0380
0380
0300
0700
0700
0600
0e00
0e00
0c00
0c00
1c00
1800
1800
3800
3000
3000
7000
6000
6000
e000
ENDCHAR
STARTCHAR braceright
ENCODING 125
SWIDTH 216 0
DWIDTH 12 0
BBX 15 29 -3 -6
BITMAP
003c
007e
007e
001e
001e
003c
003c
003c
0078
0078
0078
00f0
00f8
00fc
003c
00fc
01e0
03e0
03c0
03c0
0780
0780
0780
0780
0f00
0f00
7e00
7e00
f800
ENDCHAR
STARTCHAR asciitilde
ENCODING 126
SWIDTH 324 0
DWIDTH 18 0
BBX 16 6 1 4
BITMAP
1f00
3f87
7fce
63fc
c0f8
0020
ENDCHAR
STARTCHAR exclamdown
ENCODING 161
SWIDTH 360 0
DWIDTH 20 0
BBX 19 20 0 0
BITMAP
003f00
01ffc0
03ffc0
0783e0
0e01e0
1f80e0
07c0e0
07c0c0
0e01c0
0e01c0
1c0180
1c0380
380380
380300
380700
780700
700700
700e00
700e00
e00e00
ENDCHAR
STARTCHAR cent
ENCODING 162
SWIDTH 360 0
DWIDTH 20 0
BBX 18 19 2 0
BITMAP
0fc1c0
3fe3c0
7f7380
677380
c67780
c66700
fce700
79c700
038e00
070e00
070e00
071c00
0e1c00
0e1c00
0e1800
1e3800
7ff800
fff000
ffe000
ENDCHAR
STARTCHAR sterling
ENCODING 163
SWIDTH 396 0
DWIDTH 22 0
BBX 21 19 1 0
BITMAP
07bc38
1ffe78
39ee70
740e70
7f1cf0
7f38e0
e370e0
e771e0
fee1c0
fce1c0
78e3c0
01c380
01c380
01c780
038700
038700
1fff00
1ffe00
1ffc00
ENDCHAR
STARTCHAR currency
ENCODING 164
SWIDTH 360 0
DWIDTH 20 0
BBX 18 20 1 0
BITMAP
00fe00
03ff00
07ff80
0f07c0
1c03c0
3863c0
7bf3c0
77f3c0
773380
7e3780
7ff780
7fe700
7f8f00
7c0f00
780e00
781e00
781e00
701c00
f03c00
e03c00
ENDCHAR
STARTCHAR yen
ENCODING 165
SWIDTH 360 0
DWIDTH 20 0
BBX 18 19 1 0
BITMAP
01c700
07ff80
0fffc0
1c21c0
3861c0
7bf3c0
77f3c0
773380
7e3780
7ff780
7fe700
7f8f00
7c0f00
780e00
781e00
781e00
701c00
f03c00
e03c00
ENDCHAR
STARTCHAR brokenbar
ENCODING 166
SWIDTH 450 0
DWIDTH 25 0
BBX 24 19 2 0
BITMAP
07bc07
0ffe0f
39ee0e
300e0e
7e1c1e
7f381c
e3701c
e7703c
e6e038
fce038
79f038
07fc70
1ffe70
19cf70
3387e0
3383e0
7783e0
3f01c0
3e01c0
ENDCHAR
STARTCHAR section
ENCODING 167
SWIDTH 288 0
DWIDTH 16 0
BBX 14 20 2 -1
BITMAP
0078
00fc
018c
018c
0398
01f8
61f8
e070
f070
7070
70f0
70e0
78e0
38e0
39c0
39c0
3dc0
1f80
1f00
0400
ENDCHAR
STARTCHAR diaeresis
ENCODING 168
SWIDTH 342 0
DWIDTH 19 0
BBX 15 19 3 0
BITMAP
03f0
1ffc
3ffe
780e
600e
200e
1e0e
3f1c
671c
c71c
c738
ff38
7f38
0770
0770
0670
06e0
07e0
07c0
ENDCHAR
STARTCHAR copyright
ENCODING 169
SWIDTH 396 0
DWIDTH 22 0
BBX 19 19 1 0
BITMAP
003f00
01ff80
03ffc0
0f01c0
0e01c0
0001c0
1c01c0
3e01c0
7f0380
e70380
c60780
fe3fc0
feffe0
3def60
1f8e60
1e0ee0
3c0ec0
380f80
380f00
ENDCHAR
STARTCHAR ordfeminine
ENCODING 170
SWIDTH 360 0
DWIDTH 20 0
BBX 21 20 2 0
BITMAP
000030
0fe078
1ff0f0
3ff3e0
73ff80
e37f00
e77f80
fef780
7de700
03cf00
078f00
078e00
071e00
0f1e00
0e1c00
0e3c00
1e3c00
7ff800
fff800
fff000
ENDCHAR
STARTCHAR guillemotleft
ENCODING 171
SWIDTH 396 0
DWIDTH 22 0
BBX 23 20 1 0
BITMAP
00000c
07bc1e
1ffe3c
39cef8
740fe0
7f0fc0
ff1fc0
e319c0
e731c0
fef1c0
fce3c0
79e380
01c380
01c780
03c700
038700
038f00
1ffe00
1ffe00
1ffc00
ENDCHAR
STARTCHAR notsign
ENCODING 172
SWIDTH 468 0
DWIDTH 26 0
BBX 26 19 1 0
BITMAP
00ff01c0
03ff83c0
0f078380
1c038380
3f838780
07c38700
0f838700
1e070f00
1c070e00
3c070e00
380e1e00
380e1c00
7c3f1c00
7e7fbc00
767ff800
c6ddf800
c6dcf800
fcf8f000
78f07000
ENDCHAR
STARTCHAR hyphen
ENCODING 173
SWIDTH 468 0
DWIDTH 26 0
BBX 26 28 2 -9
BITMAP
00ff01c0
03ff83c0
0f078380
1c038380
3f838780
07c38700
0f838700
1e070f00
1c070e00
3c070e00
380e1e00
380e1c00
7c0e1c00
7e1c3c00
761c3800
c61c3800
c6fff800
fcfff000
78ffe000
00000000
00f0e000
01f8e000
0319c000
0719c000
07338000
07ff0000
03fe0000
01f80000
ENDCHAR
STARTCHAR registered
ENCODING 174
SWIDTH 396 0
DWIDTH 22 0
BBX 23 28 0 -9
BITMAP
000ff8
003ffc
007c3e
01e01e
01f80e
007c1e
007c1c
00e01c
01e01c
01c03c
03c038
038038
1f8078
3f8070
730070
6300f0
6700e0
7e00e0
7c39e0
0039c0
1ff1c0
3fe3c0
7ffb80
e1ff80
e3bf80
ff1f00
fe1f00
780f00
ENDCHAR
STARTCHAR macron
ENCODING 175
SWIDTH 396 0
DWIDTH 22 0
BBX 23 28 -1 -9
BITMAP
0007f8
001ffc
007c3e
00e00e
01f80e
003c0e
007c0c
00e01c
00e01c
01c01c
01c038
018038
0f8038
1f8070
330070
630070
6300e0
7e00e0
7c60e0
0061c0
00c1c0
1ec1c0
7f8b80
679f80
c7ff80
efff00
fccf00
708f00
ENDCHAR
STARTCHAR degree
ENCODING 176
SWIDTH 306 0
DWIDTH 17 0
BBX 26 30 -5 -11
BITMAP
0003fc00
000fffc0
001e3fc0
007f8200
007ff000
0007f800
0000fc00
001f7c00
007f7800
00fff800
00e7f800
00e7f800
00fff000
00fff000
0003f000
0003e000
0003e000
0003e000
0003c000
00000000
000f8000
01df8000
01fb8000
01fb8000
3fbf8000
7f3f0000
e7670000
fffe0000
ffb80000
20000000
ENDCHAR
STARTCHAR plusminus
ENCODING 177
SWIDTH 468 0
DWIDTH 26 0
BBX 24 19 1 0
BITMAP
07bc1e
1ffc3f
39ce7f
340ce7
7e1dc7
7f39ce
e3738e
c6770e
fee61c
fcee1c
78fc1c
01f838
01f838
01f038
03e070
03c070
03c070
0780e0
0700e0
ENDCHAR
STARTCHAR twosuperior
ENCODING 178
SWIDTH 486 0
DWIDTH 27 0
BBX 26 19 1 0
BITMAP
01c601c0
07ff03c0
0eff8380
1c018380
30618380
71f18700
63f38700
66330700
e6330e00
e7670e00
e7c60e00
e3c60c00
639f1c00
673f9c00
6e6ff800
7c5cf800
78dc7800
f0f87000
e0707000
ENDCHAR
STARTCHAR threesuperior
ENCODING 179
SWIDTH 486 0
DWIDTH 27 0
BBX 26 19 1 0
BITMAP
00ff01c0
03ff83c0
0f078380
1c038380
3f838780
07c38700
0f838700
1e070f00
1c070e00
3c070e00
380e1e00
380e7f00
7c0fff80
7e1fbf80
761f3980
c61e3b80
c63c7b00
fc387e00
78383c00
ENDCHAR
STARTCHAR acute
ENCODING 180
SWIDTH 360 0
DWIDTH 20 0
BBX 18 19 1 0
BITMAP
00fe00
03ff80
0fff80
1e03c0
3841c0
39f3c0
73fbc0
773b80
763380
e77780
f7e700
73c700
738f00
770e00
7e0e00
7c1e00
781c00
f01c00
e03c00
ENDCHAR
STARTCHAR mu
ENCODING 181
SWIDTH 360 0
DWIDTH 20 0
BBX 18 19 1 0
BITMAP
01c700
07ff80
0fffc0
1c01c0
3861c0
71f1c0
73fb80
773380
e63380
e77700
e7e700
e3c700
738e00
770e00
7e0e00
7c1e00
781c00
f01c00
e03c00
ENDCHAR
STARTCHAR paragraph
ENCODING 182
SWIDTH 360 0
DWIDTH 20 0
BBX 18 20 1 0
BITMAP
007e00
03ff80
07ff80
0f07c0
1c01c0
3f01c0
0781c0
0f8180
1c0380
1c0380
380300
380700
380700
7e0600
7e0e00
620e00
c20e00
c61c00
fc1c00
781c00
ENDCHAR
STARTCHAR periodcentered
ENCODING 183
SWIDTH 396 0
DWIDTH 22 0
BBX 19 19 2 0
BITMAP
1e03c0
3f07e0
630fe0
631ce0
4618e0
7e39c0
7e71c0
1ee1c0
1cc380
1dc380
3f8380
3f0300
3f0700
3e0700
7c0600
7c0e00
780e00
f00c00
e01c00
ENDCHAR
STARTCHAR cedilla
ENCODING 184
SWIDTH 324 0
DWIDTH 18 0
BBX 20 19 -1 0
BITMAP
007f00
01fff0
0387f0
070000
0ffc00
1fff00
001f00
038700
038700
070700
070700
070e00
0e0e00
0e0e00
0e1c00
1e1c00
7ffc00
fff800
fff000
ENDCHAR
STARTCHAR onesuperior
ENCODING 185
SWIDTH 396 0
DWIDTH 22 0
BBX 19 19 2 0
BITMAP
1f00e0
3f81e0
7381c0
6381c0
7703c0
7f0380
3e0380
0e0780
1e0700
1c0700
1c0f00
3c7f80
39ffc0
3bdfc0
7f1dc0
7e1dc0
783f80
703f00
e03e00
ENDCHAR
STARTCHAR masculine
ENCODING 186
SWIDTH 378 0
DWIDTH 21 0
BBX 22 19 -1 0
BITMAP
03c01c
0fe03c
0ce038
18e038
18c078
1fc070
0fc070
0380f0
0380e0
0780e0
0701e0
0701c0
0f01c0
0e03c0
0e0380
1e0380
7fff80
ffff00
fffc00
ENDCHAR
STARTCHAR guillemotright
ENCODING 187
SWIDTH 378 0
DWIDTH 21 0
BBX 25 26 -2 0
BITMAP
00000780
00000700
00000700
00000f00
00000e00
00000e00
00001e00
03e01c00
0fe01c00
0ee03c00
1ce03c00
1ce03800
1fc07800
0fc07800
01c07000
0380f000
0380f000
0780e000
0701e000
0701e000
0e01c000
0e03c000
0e03c000
7fff8000
ffff0000
fffe0000
ENDCHAR
STARTCHAR onequarter
ENCODING 188
SWIDTH 378 0
DWIDTH 21 0
BBX 21 19 0 0
BITMAP
00f038
03f078
033070
063070
063070
0fe0e0
0fc0e0
0c00e0
1c21c0
1c71c0
1cf9c0
3df980
3f3f80
3e1f80
7c0f00
780f00
700700
700600
e00e00
ENDCHAR
STARTCHAR onehalf
ENCODING 189
SWIDTH 378 0
DWIDTH 21 0
BBX 24 26 -2 0
BITMAP
000007
00000e
00000e
00000e
00001c
00001c
00001c
00f038
03f838
033838
073878
063070
0fe070
0fc0f0
0e00e0
1e10e0
1c71e0
1cf9c0
3dfdc0
3f9fc0
3f1f80
7e0f80
780f80
700700
700700
e00f00
ENDCHAR
STARTCHAR threequarters
ENCODING 190
SWIDTH 432 0
DWIDTH 24 0
BBX 22 19 2 0
BITMAP
1e001c
3f043c
730c38
631c38
671e38
7e3e70
7e7e70
1eee70
1ecee0
1dcfe0
3f8fe0
3f07c0
3e07c0
3c07c0
7c0780
780780
700780
e00700
e00700
ENDCHAR
STARTCHAR questiondown
ENCODING 191
SWIDTH 432 0
DWIDTH 24 0
BBX 25 26 0 0
BITMAP
00000380
00000700
00000700
00000700
00000e00
00000e00
00000e00
1f001c00
3f021c00
73863c00
630e3c00
671e3800
7f3e7800
7e7e7800
0e7e7000
0eeff000
1dc7f000
1f87e000
1f87e000
3f07e000
3e07c000
3c07c000
7807c000
78038000
70078000
e0078000
ENDCHAR
STARTCHAR Agrave
ENCODING 192
SWIDTH 396 0
DWIDTH 22 0
BBX 22 19 -1 0
BITMAP
000ff0
003ff8
00f87c
01c01c
03f81c
00781c
00f818
01c038
01c038
038030
038070
030070
1f0070
3f00e0
6600e0
c200e0
c600c0
fc01c0
7801c0
ENDCHAR
STARTCHAR Aacute
ENCODING 193
SWIDTH 378 0
DWIDTH 21 0
BBX 22 19 0 0
BITMAP
03c01c
07e03c
0e6038
0c6038
0ce078
0fc070
0fc070
01c070
0180e0
0380e0
0780e0
1ff1c0
3ff9c0
673dc0
661f80
ce0f80
ee0780
fc0700
780700
ENDCHAR
STARTCHAR Acircumflex
ENCODING 194
SWIDTH 360 0
DWIDTH 20 0
BBX 21 19 -1 0
BITMAP
00f838
01fc78
03dc70
079c70
0fb8f0
0ff0e0
0fe0e0
0e01e0
0f81c0
07c3c0
0fc3c0
1f0380
3c0780
3c0780
780700
700f00
7fff00
fffe00
fffc00
ENDCHAR
STARTCHAR Atilde
ENCODING 195
SWIDTH 306 0
DWIDTH 17 0
BBX 18 19 2 0
BITMAP
07f840
1fff80
383f80
780000
ffe000
fff000
00f800
007800
003800
007800
007000
007000
03f000
0fe000
0ce000
18e000
18c000
1f8000
0f0000
ENDCHAR
STARTCHAR Adiaeresis
ENCODING 196
SWIDTH 360 0
DWIDTH 20 0
BBX 18 30 3 -10
BITMAP
007e00
03ff80
07ff80
0f07c0
1c01c0
3f01c0
0781c0
0f8180
1c0380
1c0380
380300
380700
380700
7e0600
7e0e00
660e00
c20e00
c61c00
fc1c00
781c00
003800
003800
003800
007000
007000
007000
00e000
00e000
00e000
01c000
ENDCHAR
STARTCHAR Aring
ENCODING 197
SWIDTH 360 0
DWIDTH 20 0
BBX 18 19 1 0
BITMAP
00fe00
03ff80
0fff80
1e03c0
0803c0
0003c0
07e3c0
0ff380
1c7780
383f80
383f00
703f00
7e3f00
7f3e00
773e00
e33e00
e73c00
fe3c00
7c3c00
ENDCHAR
STARTCHAR AE
ENCODING 198
SWIDTH 396 0
DWIDTH 22 0
BBX 22 29 0 -10
BITMAP
000ff0
003ff8
00f87c
01c01c
03f81c
00781c
00f818
01c038
01c038
038038
038070
030070
1f0070
3f00e0
6600e0
c200e0
c601c0
fc01c0
7801c0
000380
000380
000380
000300
000700
000700
000600
000e00
000e00
000c00
ENDCHAR
STARTCHAR Ccedilla
ENCODING 199
SWIDTH 324 0
DWIDTH 18 0
BBX 15 19 2 0
BITMAP
03f0
1ffc
3ffe
f81e
601e
201e
001c
001c
003c
003c
0038
0038
01f8
07f0
0f70
0c70
0c60
0fc0
0f80
ENDCHAR
STARTCHAR Egrave
ENCODING 200
SWIDTH 360 0
DWIDTH 20 0
BBX 21 20 1 0
BITMAP
000030
01fe38
07fff0
0f0fe0
1c03c0
384780
73ff80
67fb80
663380
6e3700
6ee700
7fc700
7f8e00
780e00
780e00
781c00
701c00
701c00
f01800
e03800
ENDCHAR
STARTCHAR Eacute
ENCODING 201
SWIDTH 378 0
DWIDTH 21 0
BBX 25 19 -1 0
BITMAP
03e01c00
0fe01c00
0ee03c00
1ce03800
1ce03800
1fc07380
0fdf7380
01fb7700
03b3ee00
03befc00
07bff800
073fe000
0703c000
0e01c000
0e03c000
0e038000
7fff8000
ffff0000
fffe0000
ENDCHAR
STARTCHAR Ecircumflex
ENCODING 202
SWIDTH 360 0
DWIDTH 20 0
BBX 21 21 0 0
BITMAP
000030
000078
00fef0
03ffe0
0fffc0
1e03c0
0807c0
000fc0
07ffc0
0ffb80
1c7f80
383f80
383f00
703f00
7e3f00
7f3e00
773e00
e33e00
e73c00
fe3c00
7c3c00
ENDCHAR
STARTCHAR Ediaeresis
ENCODING 203
SWIDTH 378 0
DWIDTH 21 0
BBX 20 19 1 0
BITMAP
1f03e0
3f87f0
738e70
638e70
670ee0
7f0fe0
7f1f80
0e7fc0
0efbc0
1de3c0
1fc380
1f8780
3f0780
3e0700
3c0f00
780f00
780e00
701e00
f01e00
ENDCHAR
STARTCHAR Igrave
ENCODING 204
SWIDTH 432 0
DWIDTH 24 0
BBX 26 22 1 0
BITMAP
00003800
00007c80
0000cdc0
1e018f80
3f01df00
6309fc00
6308f800
671c7800
7e3c7000
7e3c7000
1e7e7000
1cfee000
1dcee000
3f8fe000
3f0fc000
3e0fc000
3e07c000
7c078000
78078000
70078000
e0070000
e0070000
ENDCHAR
STARTCHAR Iacute
ENCODING 205
SWIDTH 360 0
DWIDTH 20 0
BBX 18 19 0 0
BITMAP
00fe00
03ff80
0fffc0
0e03c0
0401c0
0001c0
078180
0fc380
18c380
30c380
398700
3f0700
7e0700
700e00
700e00
e00e00
fffc00
fffc00
7ff000
ENDCHAR
STARTCHAR Icircumflex
ENCODING 206
SWIDTH 360 0
DWIDTH 20 0
BBX 22 20 0 0
BITMAP
00fe08
03ff98
07fffc
0e03f8
0c01e0
0fffc0
0fffc0
03fdc0
0703c0
0f8380
1f8380
398780
338700
7f0700
7e0f00
700e00
f00e00
fffe00
fffc00
7ff800
ENDCHAR
STARTCHAR Idiaeresis
ENCODING 207
SWIDTH 342 0
DWIDTH 19 0
BBX 16 20 3 -1
BITMAP
0f07
3f8f
798e
719e
f31e
ff3c
fc7c
e0fc
fff8
7fb8
3e78
0070
0070
0070
00e0
00e0
03c0
0f80
1e00
1800
ENDCHAR
STARTCHAR ETH
ENCODING 208
SWIDTH 270 0
DWIDTH 15 0
BBX 18 19 -1 0
BITMAP
03c180
07e3c0
0ff380
0e6780
0cef00
0ffe00
0ffc00
07e000
000000
000000
000000
1e1c00
3f1c00
7f3c00
e77800
e6f000
ffe000
ffc000
3f0000
ENDCHAR
STARTCHAR Ntilde
ENCODING 209
SWIDTH 0 0
DWIDTH 0 0
BBX 17 8 -12 22
BITMAP
3e0200
7e0380
e60700
e61e00
ee3c00
fff800
7fe000
0f0000
ENDCHAR
STARTCHAR Ograve
ENCODING 210
SWIDTH 288 0
DWIDTH 16 0
BBX 14 20 2 0
BITMAP
03f0
1ff8
3ffc
7c3c
703c
e03c
0038
0038
0078
0078
0070
00f0
00f0
00e0
01e0
01e0
01c0
03c0
03c0
0380
ENDCHAR
STARTCHAR Oacute
ENCODING 211
SWIDTH 288 0
DWIDTH 16 0
BBX 20 30 -6 0
BITMAP
0e0000
3f0000
7f0000
e70000
e70000
fe0000
fc0000
700000
000000
000000
000fc0
003fe0
007ff0
00f0f0
01c0f0
0380f0
0000e0
0000e0
0000e0
0001e0
0001c0
0001c0
0003c0
000380
000380
000780
000700
000700
000f00
000e00
ENDCHAR
STARTCHAR Ocircumflex
ENCODING 212
SWIDTH 0 0
DWIDTH 0 0
BBX 15 8 -18 22
BITMAP
01f8
07fc
1f1e
380e
7ffe
7ffe
007e
0006
ENDCHAR
STARTCHAR Otilde
ENCODING 213
SWIDTH 36 0
DWIDTH 2 0
BBX 17 10 -17 22
BITMAP
000380
000300
03f300
0fff00
1c3e00
380e00
7fee00
fffe00
003e00
000600
ENDCHAR
STARTCHAR Odiaeresis
ENCODING 214
SWIDTH 0 0
DWIDTH 0 0
BBX 17 11 -19 22
BITMAP
000200
000f80
001f80
03f980
0ffb00
1c3f00
380c00
7ffe00
fffe00
003e00
000600
ENDCHAR
STARTCHAR multiply
ENCODING 215
SWIDTH 36 0
DWIDTH 2 0
BBX 17 10 -17 22
BITMAP
003b80
003300
03f700
0fff00
1c3e00
380e00
7fee00
7ffe00
003e00
000600
ENDCHAR
STARTCHAR Ooblique
ENCODING 216
SWIDTH 0 0
DWIDTH 0 0
BBX 8 12 -10 -14
BITMAP
0e
3f
7f
e3
c7
fe
fe
7e
1c
1c
1c
38
ENDCHAR
STARTCHAR Ugrave
ENCODING 217
SWIDTH 0 0
DWIDTH 0 0
BBX 14 12 -15 -14
BITMAP
0e1c
3f1c
7738
e338
e778
ff70
fe70
7ef0
1ee0
1fe0
1fc0
0f80
ENDCHAR
STARTCHAR Uacute
ENCODING 218
SWIDTH 0 0
DWIDTH 0 0
BBX 4 4 -7 -7
BITMAP
70
f0
f0
e0
ENDCHAR
STARTCHAR Ucircumflex
ENCODING 219
SWIDTH 0 0
DWIDTH 0 0
BBX 4 4 -7 -14
BITMAP
30
70
f0
e0
ENDCHAR
STARTCHAR Udiaeresis
ENCODING 220
SWIDTH 0 0
DWIDTH 0 0
BBX 1 1 0 0
BITMAP
00
ENDCHAR
STARTCHAR Yacute
ENCODING 221
SWIDTH 0 0
DWIDTH 0 0
BBX 1 1 0 0
BITMAP
00
ENDCHAR
STARTCHAR THORN
ENCODING 222
SWIDTH 0 0
DWIDTH 0 0
BBX 1 1 0 0
BITMAP
00
ENDCHAR
STARTCHAR ssharp
ENCODING 223
SWIDTH 414 0
DWIDTH 23 0
BBX 24 27 -1 -2
BITMAP
0000c0
0000c0
01fff8
01fffe
01fffe
03ffff
03e3ff
03c31f
07c71f
07c63e
078ffc
0ffff8
0ffff0
0ffff8
1ffff8
1f1ff8
1e18f8
3e30f8
3e30f8
3c31f0
7c7ff0
7fffe0
7fffc0
ffff80
fffc00
00c000
018000
ENDCHAR
STARTCHAR agrave
ENCODING 224
SWIDTH 180 0
DWIDTH 10 0
BBX 8 19 1 0
BITMAP
07
0f
0e
0e
1e
1c
1c
1c
38
38
38
70
7e
7e
e6
c6
c6
fc
78
ENDCHAR
STARTCHAR aacute
ENCODING 225
SWIDTH 342 0
DWIDTH 19 0
BBX 17 19 1 0
BITMAP
070380
070780
0e0700
0e0700
0e0f00
1e0e00
1c0e00
1c0e00
3c1c00
381c00
381c00
783800
7e3f00
7e3f00
667300
c66300
c66300
fc7e00
783c00
ENDCHAR
STARTCHAR acircumflex
ENCODING 226
SWIDTH 234 0
DWIDTH 13 0
BBX 18 34 0 0
BITMAP
01f040
07ff80
0fff80
1f8f00
07c000
01e000
00e000
00e000
01c000
01c000
01c000
038000
038000
038000
070000
070000
070000
0e0000
0e0000
0e0000
1e0000
1c0000
1c0000
3c0000
380000
380000
780000
7e0000
7e0000
660000
c60000
ce0000
fc0000
780000
ENDCHAR
STARTCHAR atilde
ENCODING 227
SWIDTH 234 0
DWIDTH 13 0
BBX 12 34 0 0
BITMAP
03e0
0ff0
0c70
1e70
3f70
33e0
36e0
3ee0
1dc0
01c0
01c0
03c0
0380
0380
0780
0700
0700
0f00
0e00
0e00
1e00
1c00
1c00
3c00
3800
3800
7800
7e00
7f00
6700
c600
ee00
fc00
7800
ENDCHAR
STARTCHAR adiaeresis
ENCODING 228
SWIDTH 270 0
DWIDTH 15 0
BBX 13 34 2 0
BITMAP
1878
38f8
39f8
39f0
3bf0
3ff0
3fe0
3ee0
3ce0
3dc0
39c0
01c0
0380
0380
0380
0700
0700
0700
0e00
0e00
0e00
1c00
1c00
1c00
3800
3800
3800
7e00
7f00
7700
e700
e600
fe00
7800
ENDCHAR
STARTCHAR aring
ENCODING 229
SWIDTH 288 0
DWIDTH 16 0
BBX 14 30 3 -10
BITMAP
03f0
1ff8
3ffc
7c3c
703c
e03c
0038
0038
0078
0070
0070
00f0
00e0
00e0
01e0
01c0
01c0
03c0
0380
0380
0780
0700
0700
0f00
0e00
0e00
1e00
1c00
1c00
3c00
ENDCHAR
STARTCHAR ae
ENCODING 230
SWIDTH 396 0
DWIDTH 22 0
BBX 15 26 7 -7
BITMAP
07bc
0ffe
3ffe
399e
701e
ff1e
ff1c
f33c
f73c
fe38
7c78
0078
0070
00f0
00f0
00e0
00e0
01e0
01c0
01c0
03c0
0780
0f80
7f00
7c00
7000
ENDCHAR
STARTCHAR ccedilla
ENCODING 231
SWIDTH 0 0
DWIDTH 0 0
BBX 17 12 -17 22
BITMAP
000380
000380
000700
1ffe00
3ffc00
780000
f67800
fffc00
ffdc00
f3d800
e1f800
60e000
ENDCHAR
STARTCHAR egrave
ENCODING 232
SWIDTH 0 0
DWIDTH 0 0
BBX 5 6 -7 35
BITMAP
38
30
70
70
60
e0
ENDCHAR
STARTCHAR eacute
ENCODING 233
SWIDTH 0 0
DWIDTH 0 0
BBX 13 8 -10 33
BITMAP
1c38
7c38
ec70
ecf0
fde0
7bc0
7f80
fe00
ENDCHAR
STARTCHAR ecircumflex
ENCODING 234
SWIDTH 0 0
DWIDTH 0 0
BBX 15 7 -14 33
BITMAP
3dee
7fee
62ec
f8dc
fcf8
d9f0
73c0
ENDCHAR
STARTCHAR ediaeresis
ENCODING 235
SWIDTH 0 0
DWIDTH 0 0
BBX 9 8 -9 33
BITMAP
0e00
0e00
0c00
7f80
ff80
ff00
1800
3800
ENDCHAR
STARTCHAR igrave
ENCODING 236
SWIDTH 0 0
DWIDTH 0 0
BBX 13 10 -13 31
BITMAP
0038
0070
0ff0
3fc0
7c00
7e00
ee00
ec00
fc00
3000
ENDCHAR
STARTCHAR iacute
ENCODING 237
SWIDTH 0 0
DWIDTH 0 0
BBX 8 8 -10 22
BITMAP
0e
3f
7f
e7
e7
fe
fc
70
ENDCHAR
STARTCHAR icircumflex
ENCODING 238
SWIDTH 0 0
DWIDTH 0 0
BBX 8 7 -10 28
BITMAP
1e
3f
77
e3
e6
fe
7c
ENDCHAR
STARTCHAR idiaeresis
ENCODING 239
SWIDTH 342 0
DWIDTH 19 0
BBX 20 19 -1 0
BITMAP
003f00
01ffc0
03ffe0
0700e0
0c3870
18fe70
31fe30
73ff30
67ff30
67fe60
effe60
cffce0
c7fcc0
e7f180
e3e380
700700
7ffc00
3ff800
0fc000
ENDCHAR
STARTCHAR eth
ENCODING 240
SWIDTH 342 0
DWIDTH 19 0
BBX 17 14 1 0
BITMAP
01fc00
07ff00
0fff00
1f0f80
3c0780
780780
700780
f00780
f00f00
f00f00
f83e00
7ffc00
7ff000
3fc000
ENDCHAR
STARTCHAR ntilde
ENCODING 241
SWIDTH 360 0
DWIDTH 20 0
BBX 17 16 2 -2
BITMAP
00fc00
07ff00
0fff00
1e0f80
38e780
73f780
77f780
fe7780
ee7700
ffef00
ffce00
7f9e00
3f3c00
007800
00e000
004000
ENDCHAR
STARTCHAR ograve
ENCODING 242
SWIDTH 432 0
DWIDTH 24 0
BBX 21 20 1 0
BITMAP
060000
1e0000
0e0000
0e0000
0e0000
1c0000
1c7cf0
1cfff8
39fff8
3bee38
3bf478
7ff070
773070
7630f0
f7e0e0
e7c0e0
f001e0
ffffc0
ffff80
3fff00
ENDCHAR
STARTCHAR oacute
ENCODING 243
SWIDTH 414 0
DWIDTH 23 0
BBX 20 14 1 0
BITMAP
03e3e0
07f7f0
1ffff0
1c3c70
383870
783870
703070
7e70e0
ff70e0
e760e0
e7e1c0
eee1c0
fce380
79c700
ENDCHAR
STARTCHAR ocircumflex
ENCODING 244
SWIDTH 414 0
DWIDTH 23 0
BBX 26 22 1 0
BITMAP
00000100
000001c0
00000380
00000380
00000300
00000700
00000e00
00001e00
01fffc00
07fff000
0fffe000
1c300000
38f80000
71f80000
71980000
e3180000
e3f00000
e3e00000
f9fe0000
ffffc000
7fff8000
1fc38000
ENDCHAR
STARTCHAR otilde
ENCODING 245
SWIDTH 432 0
DWIDTH 24 0
BBX 26 22 1 0
BITMAP
00000100
000001c0
00000380
000e0380
001f0300
003f0700
00630e00
00633e00
01fff800
07fff000
1fffc000
3c300000
38f80000
71f80000
61980000
e3180000
e3f00000
e3e00000
f9fe0000
7fffc000
7fff8000
1fc38000
ENDCHAR
STARTCHAR odiaeresis
ENCODING 246
SWIDTH 306 0
DWIDTH 17 0
BBX 15 21 1 0
BITMAP
0c00
1c00
1c00
1c00
1c00
1c00
1cf0
1ffc
1ffe
1e7e
100e
000e
0c0e
3e0e
7f1c
671c
e638
fef0
ffe0
7fc0
3f00
ENDCHAR
STARTCHAR division
ENCODING 247
SWIDTH 432 0
DWIDTH 24 0
BBX 26 22 0 -1
BITMAP
00000080
000001c0
00000380
00000380
00000700
00000700
00000600
00020e00
07cf8e00
0fff8c00
1cf3dc00
38f1dc00
70e19800
6001b800
ee03b800
ff037000
ff076000
e30fe000
e70fc000
fe3f0000
7c1c0000
00100000
ENDCHAR
STARTCHAR oslash
ENCODING 248
SWIDTH 414 0
DWIDTH 23 0
BBX 24 21 1 0
BITMAP
000007
000007
000007
000007
00000e
00000e
00000e
00701c
07fff8
0ffff0
1f0fc0
380380
7007c0
700fc0
e71ce0
ef99c0
ffdfc0
fddfc0
f9f780
78ff00
787e00
ENDCHAR
STARTCHAR ugrave
ENCODING 249
SWIDTH 378 0
DWIDTH 21 0
BBX 23 21 0 0
BITMAP
00000e
00000e
00001e
00001e
00001e
00001c
00001c
00e3bc
07fff8
0ffff8
1e7ef0
381e00
781e00
701e00
f7ef00
ffef00
feef00
fcef00
ffef80
7fc780
3f0600
ENDCHAR
STARTCHAR uacute
ENCODING 250
SWIDTH 990 0
DWIDTH 55 0
BBX 56 3 0 7
BITMAP
fffff800000000
ffffffffffffff
000000000fffff
ENDCHAR
STARTCHAR ucircumflex
ENCODING 251
SWIDTH 504 0
DWIDTH 28 0
BBX 28 3 0 7
BITMAP
ffc00000
fffffff0
00003ff0
ENDCHAR
STARTCHAR udiaeresis
ENCODING 252
SWIDTH 0 0
DWIDTH 0 0
BBX 8 11 -10 -22
BITMAP
3e
7f
67
e7
ee
fe
7e
1c
1c
1c
38
ENDCHAR
STARTCHAR yacute
ENCODING 253
SWIDTH 0 0
DWIDTH 0 0
BBX 14 12 -15 -23
BITMAP
3f1c
7f38
7738
e738
ef70
fe70
7ef0
1ef0
1ee0
1fe0
1fc0
0600
ENDCHAR
STARTCHAR thorn
ENCODING 254
SWIDTH 414 0
DWIDTH 23 0
BBX 23 22 1 -1
BITMAP
001fc0
007070
018018
07000c
0cff06
187186
106186
206182
60c306
40ee06
40d804
c19c04
c18c0c
818e08
c18e10
c7c730
c00060
6000c0
600380
380600
0e3800
03c000
ENDCHAR
STARTCHAR ydiaeresis
ENCODING 255
SWIDTH 0 0
DWIDTH 0 0
BBX 1 1 0 0
BITMAP
00
ENDCHAR
ENDFONT
